<svg id="编组_17" data-name="编组 17" xmlns="http://www.w3.org/2000/svg" xmlns:xlink="http://www.w3.org/1999/xlink" width="20" height="20" viewBox="0 0 20 20">
  <defs>
    <clipPath id="clip-path">
      <circle id="椭圆形" cx="10" cy="10" r="10" fill="#fff"/>
    </clipPath>
  </defs>
  <circle id="椭圆形-2" data-name="椭圆形" cx="10" cy="10" r="10" fill="#fff"/>
  <g id="编组_17-2" data-name="编组 17" clip-path="url(#clip-path)">
    <path id="路径" d="M15.281,15.781a10.893,10.893,0,0,0-.766-2.656,8.053,8.053,0,0,0-2.5-1.875c-.937-.625-2.5-1.406-2.5-2.344,0-.781.781-1.094,1.25-2.187a8.726,8.726,0,0,0,.469-3.594A3.36,3.36,0,0,0,7.641,0,3.36,3.36,0,0,0,4.047,3.125a8.726,8.726,0,0,0,.469,3.594c.469,1.094,1.25,1.406,1.25,2.188,0,.938-1.562,1.719-2.5,2.344a8.053,8.053,0,0,0-2.5,1.875A11.636,11.636,0,0,0,0,15.781Z" transform="translate(2.359 4.219)" fill="#0076ff" opacity="0.6"/>
  </g>
</svg>
