<?xml version="1.0" encoding="UTF-8"?>
<svg width="16px" height="16px" viewBox="0 0 16 16" version="1.1" xmlns="http://www.w3.org/2000/svg" xmlns:xlink="http://www.w3.org/1999/xlink">
    <!-- Generator: Sketch 61 (89581) - https://sketch.com -->
    <title>编组 5</title>
    <desc>Created with Sketch.</desc>
    <g id="页面-1" stroke="none" stroke-width="1" fill="none" fill-rule="evenodd">
        <g id="画板备份-6" transform="translate(-360.000000, -974.000000)">
            <g id="分组-10复制" transform="translate(340.000000, 958.000000)">
                <g id="编组-5" transform="translate(20.000000, 16.000000)">
                    <g id="分组-6">
                        <g id="编组">
                            <rect id="矩形" fill="#FFFFFF" opacity="0" x="0" y="0" width="16" height="16"></rect>
                            <path d="M9,0 L9,1.08295844 C11.8377133,1.55903653 14,4.02700371 14,7 L14,11 L15,12 L15,14 L10.4499909,14 C10.2183558,15.1411202 9.20947896,16 8,16 C6.79052104,16 5.78164422,15.1411202 5.55000906,14 L1,14 L1,12 L2,11 L2,7 C2,4.02700371 4.16228666,1.55903653 7,1.08295844 L7,0 L9,0 Z M8,3 C5.790861,3 4,4.790861 4,7 L4,12 L12,12 L12,7 C12,4.790861 10.209139,3 8,3 Z" id="Combined-Shape" fill="#DF7F00"></path>
                        </g>
                    </g>
                </g>
            </g>
        </g>
    </g>
</svg>