<?xml version="1.0" encoding="UTF-8"?>
<svg width="16px" height="16px" viewBox="0 0 16 16" version="1.1" xmlns="http://www.w3.org/2000/svg" xmlns:xlink="http://www.w3.org/1999/xlink">
    <title>date-cur</title>
    <g id="腾讯云控制台操作icon" stroke="none" stroke-width="1" fill="none" fill-rule="evenodd">
        <g id="非当前日期">
            <g id="date-cur">
                <polygon id="路径" fill="#FFFFFF" opacity="0" points="0 0 16 0 16 16 0 16"></polygon>
                <path d="M8,11 C9.65685425,11 11,9.65685425 11,8 C11,6.34314575 9.65685425,5 8,5 C6.34314575,5 5,6.34314575 5,8 C5,9.65685425 6.34314575,11 8,11 Z M8,13 C5.23857625,13 3,10.7614237 3,8 C3,5.23857625 5.23857625,3 8,3 C10.7614237,3 13,5.23857625 13,8 C13,10.7614237 10.7614237,13 8,13 L8,13 Z" id="形状" fill="#888888" fill-rule="nonzero"></path>
            </g>
        </g>
    </g>
</svg>