<?xml version="1.0" encoding="UTF-8"?>
<svg width="16px" height="16px" viewBox="0 0 16 16" version="1.1" xmlns="http://www.w3.org/2000/svg" xmlns:xlink="http://www.w3.org/1999/xlink">
    <!-- Generator: Sketch 59.1 (86144) - https://sketch.com -->
    <title>分组 6</title>
    <desc>Created with Sketch.</desc>
    <g id="页面-1" stroke="none" stroke-width="1" fill="none" fill-rule="evenodd">
        <g id="画板" transform="translate(-360.000000, -1344.000000)">
            <g id="分组-10复制备份-4" transform="translate(340.000000, 1328.000000)">
                <g id="编组-5" transform="translate(20.000000, 16.000000)">
                    <g id="分组-6">
                        <g id="编组">
                            <rect id="矩形" fill="#FFFFFF" opacity="0" x="0" y="0" width="16" height="16"></rect>
                            <path d="M7,12 L9,12 L9,10 L7,10 L7,12 Z M7,9 L9,9 L9,4 L7,4 L7,9 Z M8,14 C4.691,14 2,11.309 2,8 C2,4.691 4.691,2 8,2 C11.309,2 14,4.691 14,8 C14,11.309 11.309,14 8,14 L8,14 Z M8,0 C3.582,0 0,3.582 0,8 C0,12.418 3.582,16 8,16 C12.418,16 16,12.418 16,8 C16,3.582 12.418,0 8,0 L8,0 Z" id="Fill-1-Copy" fill="#E54545"></path>
                        </g>
                    </g>
                </g>
            </g>
        </g>
    </g>
</svg>