<?xml version="1.0" encoding="UTF-8"?>
<svg width="16px" height="16px" viewBox="0 0 16 16" version="1.1" xmlns="http://www.w3.org/2000/svg" xmlns:xlink="http://www.w3.org/1999/xlink">
    <!-- Generator: Sketch 54.1 (76490) - https://sketchapp.com -->
    <title>添加</title>
    <desc>Created with Sketch.</desc>
    <g id="修改组件" stroke="none" stroke-width="1" fill="none" fill-rule="evenodd">
        <g id="Slider滑动输入条-Copy-3" transform="translate(-256.000000, -213.000000)">
            <g id="Group-3复制-2" transform="translate(238.000000, 206.000000)">
                <g id="Group-33-Copy-4">
                    <g id="分组-14" transform="translate(10.000000, 5.000000)">
                        <g id="添加" transform="translate(8.000000, 2.000000)">
                            <path d="M7,9 L5,9 L5,7 L7,7 L7,5 L9,5 L9,7 L11,7 L11,9 L9,9 L9,11 L7,11 L7,9 Z M13,8 C13,5.243 10.757,3 8,3 C5.243,3 3,5.243 3,8 C3,10.757 5.243,13 8,13 C10.757,13 13,10.757 13,8 Z M15,8 C15,11.866 11.866,15 8,15 C4.134,15 1,11.866 1,8 C1,4.134 4.134,1 8,1 C11.866,1 15,4.134 15,8 Z" id="合并形状" fill="#0ABF5B"></path>
                        </g>
                    </g>
                </g>
            </g>
        </g>
    </g>
</svg>