<?xml version="1.0" encoding="UTF-8"?>
<svg width="16px" height="16px" viewBox="0 0 16 16" version="1.1" xmlns="http://www.w3.org/2000/svg" xmlns:xlink="http://www.w3.org/1999/xlink">
    <title>not</title>
    <g id="腾讯云控制台操作icon" stroke="none" stroke-width="1" fill="none" fill-rule="evenodd">
        <g id="不执行">
            <g id="not">
                <polygon id="路径" fill="#FFFFFF" opacity="0" points="0 0 16 0 16 16 0 16"></polygon>
                <path d="M13,8 C13,5.243 10.757,3 8,3 C5.243,3 3,5.243 3,8 C3,10.757 5.243,13 8,13 C10.757,13 13,10.757 13,8 Z M15,8 C15,11.8659932 11.8659932,15 8,15 C4.13400675,15 1,11.8659932 1,8 C1,4.13400675 4.13400675,1 8,1 C11.8659932,1 15,4.13400675 15,8 Z M5,7 L11,7 L11,9 L5,9 L5,7 Z" id="形状" fill="#888888" fill-rule="nonzero"></path>
            </g>
        </g>
    </g>
</svg>