<?xml version="1.0" encoding="UTF-8"?>
<svg width="16px" height="16px" viewBox="0 0 16 16" version="1.1" xmlns="http://www.w3.org/2000/svg" xmlns:xlink="http://www.w3.org/1999/xlink">
    <title>icon-列表拖拽</title>
    <g id="腾讯云控制台操作icon" stroke="none" stroke-width="1" fill="none" fill-rule="evenodd">
        <g id="画板10-copy-17">
            <g id="icon-列表拖拽">
                <rect id="矩形" fill="#FFFFFF" opacity="0" x="0" y="0" width="16" height="16"></rect>
                <path d="M11,13 L11,15.001 L9,15.001 L9,13 L11,13 Z M7,13 L7,15.001 L5,15.001 L5,13 L7,13 Z M11,9 L11,11.001 L9,11.001 L9,9 L11,9 Z M7,9 L7,11.001 L5,11.001 L5,9 L7,9 Z M11,5 L11,7.001 L9,7.001 L9,5 L11,5 Z M7,5 L7,7.001 L5,7.001 L5,5 L7,5 Z M11,1 L11,3.001 L9,3.001 L9,1 L11,1 Z M7,1 L7,3.001 L5,3.001 L5,1 L7,1 Z" id="形状" fill="#BBBBBB"></path>
            </g>
        </g>
    </g>
</svg>