<?xml version="1.0" encoding="UTF-8"?>
<svg width="16px" height="16px" viewBox="0 0 16 16" version="1.1" xmlns="http://www.w3.org/2000/svg" xmlns:xlink="http://www.w3.org/1999/xlink">
    <title>help</title>
    <g id="腾讯云控制台操作icon" stroke="none" stroke-width="1" fill="none" fill-rule="evenodd">
        <g id="帮助">
            <g id="help">
                <rect id="Rectangle-Copy-9" fill="#FFFFFF" opacity="0" x="0" y="0" width="16" height="16"></rect>
                <path d="M8,1 C11.8659932,1 15,4.13400675 15,8 C15,11.8659932 11.8659932,15 8,15 C4.13400675,15 1,11.8659932 1,8 C1,4.13400675 4.13400675,1 8,1 Z M8,2.5 C4.967,2.5 2.5,4.967 2.5,8 C2.5,11.033 4.967,13.5 8,13.5 C11.033,13.5 13.5,11.033 13.5,8 C13.5,4.967 11.033,2.5 8,2.5 Z M9,11.5 L9,12.5 L7,12.5 L7,11.5 L9,11.5 Z M6.5,3.96492375 C7.42820322,3.42902536 8.57179678,3.42902536 9.5,3.96492375 C10.4282032,4.50082215 11,5.49120322 11,6.56299996 C10.9978455,7.76735488 10.2743883,8.8460487 9.1764244,9.31079264 L9,9.379 L9,10.437 L7,10.437 L7,9.062 C7,8.46015385 7.35701775,7.94607101 7.86891579,7.70851798 L8,7.655 L8,7.641 C8.578,7.484 9,7.113 9,6.562 C9,6.011 8.551,5.562 8,5.562 C7.48835714,5.562 7.06466327,5.94914796 7.00674599,6.44641687 L7,6.56299996 L5,6.56299996 C5,5.49120322 5.57179675,4.50082215 6.5,3.96492375 Z" id="形状" fill="#888888" fill-rule="nonzero"></path>
            </g>
        </g>
    </g>
</svg>