<?xml version="1.0" encoding="UTF-8"?>
<svg width="16px" height="16px" viewBox="0 0 16 16" version="1.1" xmlns="http://www.w3.org/2000/svg" xmlns:xlink="http://www.w3.org/1999/xlink">
    <title>邮箱1 - 错误</title>
    <g id="邮箱1---错误" stroke="none" stroke-width="1" fill="none" fill-rule="evenodd">
        <g transform="translate(-0.140625, 1.000000)" fill-rule="nonzero" id="形状结合">
            <path d="M16,9.76996262e-15 L16.0009752,7.00081101 C15.485361,6.31406993 14.7970599,5.76440489 14.0005324,5.41627634 L13.999,2.75 L8,7.25 L1.999,2.749 L2,10 L7,10 C7,10.7113108 7.14853355,11.3879297 7.41627634,12.0005324 L-3.73034936e-14,12 L-3.73034936e-14,9.76996262e-15 L16,9.76996262e-15 Z M11.666,2 L4.334,2 L8,4.75 L11.666,2 Z" fill="#888888"></path>
            <path d="M12,6 C14.209139,6 16,7.790861 16,10 C16,12.209139 14.209139,14 12,14 C9.790861,14 8,12.209139 8,10 C8,7.790861 9.790861,6 12,6 Z M12.5,11.5 L11.5,11.5 L11.5,12.5 L12.5,12.5 L12.5,11.5 Z M12.5,7.5 L11.5,7.5 L11.5,10.5 L12.5,10.5 L12.5,7.5 Z" style="fill:#F74042"></path>
        </g>
    </g>
</svg>