<?xml version="1.0" encoding="UTF-8"?>
<svg width="16px" height="16px" viewBox="0 0 16 16" version="1.1" xmlns="http://www.w3.org/2000/svg" xmlns:xlink="http://www.w3.org/1999/xlink">
    <title>邮箱1 - 警告</title>
    <g id="邮箱1---警告" stroke="none" stroke-width="1" fill="none" fill-rule="evenodd">
        <g transform="translate(0.000000, 1.000000)" fill-rule="nonzero">
            <polygon id="形状结合" fill="#888888" points="16 0 16 10.414 14 6.97 14 2 2 2 2 10 8.401 10 7.239 12 0 12 0 0"></polygon>
            <path d="M12.4187047,6.33867852 C12.5249604,6.40039258 12.613299,6.48873114 12.6750131,6.59498687 L16.0967943,12.4864128 C16.2929327,12.8241125 16.1781676,13.2568857 15.8404593,13.4530387 C15.732584,13.5156966 15.6100538,13.5487017 15.485304,13.5487044 L8.6414847,13.5488536 C8.25095029,13.5488536 7.934375,13.2322783 7.934375,12.8417439 C7.934375,12.7169941 7.96738282,12.5944639 8.03004068,12.4865885 L11.4520787,6.59501352 C11.6482318,6.25730525 12.081005,6.14254016 12.4187047,6.33867852 Z M12.5923689,12 L11.5923689,12 L11.5923689,13 L12.5923689,13 L12.5923689,12 Z M12.5923689,8 L11.5923689,8 L11.5923689,11 L12.5923689,11 L12.5923689,8 Z" id="形状结合" style="fill:#F0B64B"></path>
            <polygon id="路径" fill="#888888" points="1.942608 0.206956002 8 4.75 14.0194308 0.235426897 15.2194308 1.8354269 8 7.25 0.742608003 1.806956"></polygon>
        </g>
    </g>
</svg>