<?xml version="1.0" encoding="UTF-8"?>
<svg width="16px" height="16px" viewBox="0 0 16 16" version="1.1" xmlns="http://www.w3.org/2000/svg" xmlns:xlink="http://www.w3.org/1999/xlink">
    <!-- Generator: Sketch 61 (89581) - https://sketch.com -->
    <title>编组 5</title>
    <desc>Created with Sketch.</desc>
    <g id="页面-1" stroke="none" stroke-width="1" fill="none" fill-rule="evenodd">
        <g id="画板备份-6" transform="translate(-360.000000, -456.000000)">
            <g id="分组-10复制-6备份" transform="translate(340.000000, 440.000000)">
                <g id="编组-5" transform="translate(20.000000, 16.000000)">
                    <g id="分组-6">
                        <g id="编组">
                            <rect id="矩形" fill="#FFFFFF" opacity="0" x="0" y="0" width="16" height="16"></rect>
                            <path d="M9,3.44635936 L4.53112887,6 L2,6 L2,10 L4.53112887,10 L9,12.5536406 L9,3.44635936 Z M11,0 L11,16 L4,12 L0,12 L0,4 L4,4 L11,0 Z M12,3.10001812 C14.2822403,3.56328845 16,5.58104209 16,8 C16,10.4189579 14.2822403,12.4367116 12,12.8999819 L12,10.8292943 C13.1651924,10.4174579 14,9.30621883 14,8 C14,6.69378117 13.1651924,5.58254212 12,5.17070571 L12,3.10001812 Z" id="Rectangle-5" fill="#888" fill-rule="nonzero"></path>
                        </g>
                    </g>
                </g>
            </g>
        </g>
    </g>
</svg>