<?xml version="1.0" encoding="UTF-8"?>
<svg width="16px" height="16px" viewBox="0 0 16 16" version="1.1" xmlns="http://www.w3.org/2000/svg" xmlns:xlink="http://www.w3.org/1999/xlink">
    <title>手机1 -警告</title>
    <g id="手机1--警告" stroke="none" stroke-width="1" fill="none" fill-rule="evenodd">
        <g fill-rule="nonzero">
            <polygon id="矩形" fill="#888888" points="7 11 7 13 5 13 5 11"></polygon>
            <polygon id="形状结合" fill="#888888" points="12 0 12 7 10 7 10 2 2 2 2 14 6 14 6 16 0 16 0 0"></polygon>
            <path d="M11.4263358,8.33867852 C11.5325916,8.40039258 11.6209301,8.48873114 11.6826442,8.59498687 L15.1044255,14.4864128 C15.3005638,14.8241125 15.1857987,15.2568857 14.8480905,15.4530387 C14.7402151,15.5156966 14.6176849,15.5487017 14.4929352,15.5487044 L7.64911583,15.5488536 C7.25858142,15.5488536 6.94200613,15.2322783 6.94200613,14.8417439 C6.94200613,14.7169941 6.97501395,14.5944639 7.03767181,14.4865885 L10.4597099,8.59501352 C10.6558629,8.25730525 11.0886361,8.14254016 11.4263358,8.33867852 Z M11.6,14 L10.6,14 L10.6,15 L11.6,15 L11.6,14 Z M11.6,10 L10.6,10 L10.6,13 L11.6,13 L11.6,10 Z" id="形状结合" style="fill:#F0B64B"></path>
        </g>
    </g>
</svg>