<?xml version="1.0" encoding="UTF-8"?>
<svg width="16px" height="16px" viewBox="0 0 16 16" version="1.1" xmlns="http://www.w3.org/2000/svg" xmlns:xlink="http://www.w3.org/1999/xlink">
    <title>QQ</title>
    <g id="腾讯云控制台操作icon" stroke="none" stroke-width="1" fill="none" fill-rule="evenodd">
        <g id="QQ">
            <g>
                <rect id="矩形" fill="#FFFFFF" opacity="0" x="0" y="0" width="16" height="16"></rect>
                <path d="M2.77885966,6.16 C2.77885966,3.087 4.28865827,0 8.00020315,0 C11.711748,0 13.2215466,3.087 13.2215466,6.16 C13.2215466,6.343 13.2111414,6.696 13.2111414,6.718 L13.9603178,8.514 C14.1653008,9.028 14.3682028,9.563 14.5169976,10.022 C15.2245531,12.212 14.9945975,13.118 14.8208302,13.139 C14.8156276,13.14 14.810425,13.14 14.8062629,13.14 C14.4181479,13.14 13.3620172,11.49 13.3620172,11.49 C13.3620172,12.47 12.8365532,13.748 11.7013428,14.671 C12.1269166,14.797 12.6471781,14.991 12.9822264,15.229 C13.2829375,15.441 13.2454787,15.659 13.1913715,15.747 C13.0737924,15.938 12.0780121,16 10.9667337,16 C9.82528017,16 8.563126,15.934 8.00020315,15.873 C7.43832083,15.934 6.17512613,16 5.0336726,16 C3.92239424,16 2.92765442,15.938 2.81007534,15.747 C2.75492764,15.659 2.71746881,15.441 3.01817991,15.229 C3.35322825,14.991 3.87348966,14.798 4.29802297,14.672 C3.16281258,13.748 2.63838908,12.47 2.63838908,11.49 C2.63838908,11.49 1.58225842,13.14 1.19414341,13.14 C1.1889408,13.14 1.18477871,13.14 1.17957609,13.139 C1.00476826,13.118 0.775853238,12.212 1.48340875,10.022 C1.63220352,9.563 1.83510547,9.028 2.03904794,8.514 L2.78926489,6.718 C2.78822437,6.696 2.77885966,6.343 2.77885966,6.16 Z M11.2828495,5.15950923 C11.2828495,3.41705084 9.81306771,2.00450923 8,2.00450923 C6.18693229,2.00450923 4.71715051,3.41705084 4.71715051,5.15950923 L4.71715051,6.70504276 C4.68484827,6.76834964 4.65363026,6.8305663 4.62367955,6.89144824 C3.60586991,8.9654976 3.70135676,9.89329855 3.87142231,9.93747526 C3.87642948,9.93916139 3.88055107,9.93971809 3.88570305,9.94041395 C3.99700189,9.95544681 4.27415104,9.87530883 4.71715051,9.7 L4.71715051,10.845 C4.71715051,12.5874584 6.18693229,14 8,14 C9.81306771,14 11.2828495,12.5874584 11.2828495,10.845 L11.2828495,9.7 C11.725849,9.87530883 12.0029981,9.95544681 12.114297,9.94041395 C12.1194489,9.93971809 12.1235705,9.93916139 12.1285777,9.93747526 C12.2986432,9.89329855 12.3941301,8.9654976 11.3763204,6.89144824 C11.3463697,6.8305663 11.3151517,6.76834964 11.2828495,6.70504276 L11.2828495,5.15950923 Z" fill="#888888"></path>
            </g>
        </g>
    </g>
</svg>