<?xml version="1.0" encoding="UTF-8"?>
<svg width="16px" height="16px" viewBox="0 0 16 16" version="1.1" xmlns="http://www.w3.org/2000/svg" xmlns:xlink="http://www.w3.org/1999/xlink">
    <!-- Generator: Sketch 52.2 (67145) - http://www.bohemiancoding.com/sketch -->
    <title>二维码</title>
    <desc>Created with Sketch.</desc>
    <g id="二维码" stroke="none" stroke-width="1" fill="none" fill-rule="evenodd">
        <path d="M7,9 L15,9 L15,1 L7,1 L7,9 Z M9,7 L13,7 L13,3 L9,3 L9,7 Z M1,1 L1,7 L3,7 L3,3 L5,3 L5,1 L1,1 Z M10,6 L12,6 L12,4 L10,4 L10,6 Z M3,9 L5,9 L5,7 L3,7 L3,9 Z M1,11 L3,11 L3,8.999 L1,8.999 L1,11 Z M9,11 L9,13 L7,13 L7,15 L11,15 L11,13 L13,13 L13,15 L15,15 L15,11 L9,11 Z M3,11 L3,13 L1,13 L1,15 L5,15 L5,13 L7,13 L7,11 L3,11 Z" id="Fill-1" fill="#888888"></path>
    </g>
</svg>