<?xml version="1.0" encoding="UTF-8"?>
<svg width="56px" height="56px" viewBox="0 0 56 56" version="1.1" xmlns="http://www.w3.org/2000/svg" xmlns:xlink="http://www.w3.org/1999/xlink">
    <!-- Generator: Sketch 61.2 (89653) - https://sketch.com -->
    <title>编组 32备份</title>
    <desc>Created with Sketch.</desc>
    <g id="页面-1" stroke="none" stroke-width="1" fill="none" fill-rule="evenodd">
        <g id="编组-7备份-2" transform="translate(-1035.000000, -45.000000)">
            <g id="编组-15备份-4">
                <g id="编组-32备份" transform="translate(1035.000000, 45.000000)">
                    <g id="编组-18">
                        <rect id="矩形" fill="#FFFFFF" opacity="0" x="0" y="0" width="56" height="56"></rect>
                        <g id="编组-17" transform="translate(13.300000, 16.100000)">
                            <polygon id="矩形" fill="#C1CCDD" points="6.46933895e-14 -2.70574674e-12 10.5 0 13.3 2.8 26.6 2.8 26.6 23.8 6.46933895e-14 23.8"></polygon>
                            <path d="M31.1017,7 L26.6,23.8 L3.18323146e-13,23.8 L4.5017,7 L31.1017,7 Z" id="形状结合" fill="#EBEFF5"></path>
                        </g>
                    </g>
                    <g id="编组备份" transform="translate(35.000000, 32.200000)">
                        <path d="M5.6,0 C2.5074,0 0,2.5074 0,5.6 C0,8.6926 2.5074,11.2 5.6,11.2 C8.6926,11.2 11.2,8.6926 11.2,5.6 C11.2,2.5074 8.6926,0 5.6,0 L5.6,0 Z" id="Path" fill="#0076FF"></path>
                        <path d="M5.07625776,2.1 C6.71999954,2.1 8.05251552,3.43251599 8.05251552,5.07625776 C8.05251552,5.6444612 7.8932899,6.1754755 7.61702384,6.62711548 L8.85979797,7.86984848 L7.86984848,8.85979797 L6.62711548,7.61702384 C6.1754755,7.8932899 5.6444612,8.05251552 5.07625776,8.05251552 C3.43251599,8.05251552 2.1,6.71999954 2.1,5.07625776 C2.1,3.43251599 3.43251599,2.1 5.07625776,2.1 Z M5.07625776,3.5 C4.20571464,3.5 3.5,4.20571464 3.5,5.07625776 C3.5,5.94680089 4.20571464,6.65251552 5.07625776,6.65251552 C5.94680089,6.65251552 6.65251552,5.94680089 6.65251552,5.07625776 C6.65251552,4.20571464 5.94680089,3.5 5.07625776,3.5 Z" id="形状" fill="#FFFFFF" fill-rule="nonzero"></path>
                    </g>
                </g>
            </g>
        </g>
    </g>
</svg>