<?xml version="1.0" encoding="UTF-8"?>
<svg width="56px" height="56px" viewBox="0 0 56 56" version="1.1" xmlns="http://www.w3.org/2000/svg" xmlns:xlink="http://www.w3.org/1999/xlink">
    <!-- Generator: Sketch 61.2 (89653) - https://sketch.com -->
    <title>编组 27备份</title>
    <desc>Created with Sketch.</desc>
    <g id="页面-1" stroke="none" stroke-width="1" fill="none" fill-rule="evenodd">
        <g id="编组-7备份-2" transform="translate(-1326.000000, -45.000000)">
            <g id="编组-15备份-4">
                <g id="编组-27备份" transform="translate(1326.000000, 45.000000)">
                    <g id="编组-14备份">
                        <g id="矩形-2" fill="#FFFFFF" opacity="0">
                            <rect id="矩形" x="0" y="0" width="56" height="56"></rect>
                        </g>
                        <g id="编组-13" transform="translate(13.300000, 17.500000)">
                            <polygon id="Rectangle-4" fill="#EBEFF5" points="0 21 0 0 29.4 0 29.4 21"></polygon>
                            <rect id="矩形" fill="#C1CCDD" x="20.3" y="11.9" width="6.3" height="6.3"></rect>
                            <rect id="矩形" fill="#C1CCDD" x="0" y="3.5" width="29.4" height="5.6"></rect>
                        </g>
                    </g>
                    <g id="编组备份" transform="translate(33.600000, 30.800000)">
                        <rect id="矩形" fill="#FFFFFF" opacity="0" x="0" y="0" width="14" height="14"></rect>
                        <path d="M7,1.4 C3.9074,1.4 1.4,3.9074 1.4,7 C1.4,10.0926 3.9074,12.6 7,12.6 C10.0926,12.6 12.6,10.0926 12.6,7 C12.6,3.9074 10.0926,1.4 7,1.4 L7,1.4 Z" id="Path" fill="#0076FF"></path>
                        <path d="M7.7,8.4 L7.7,9.8 L6.3,9.8 L6.3,8.4 L7.7,8.4 Z M7.7,4.2 L7.7,7.7 L6.3,7.7 L6.3,4.2 L7.7,4.2 Z" id="形状" fill="#FFFFFF"></path>
                    </g>
                </g>
            </g>
        </g>
    </g>
</svg>