<?xml version="1.0" encoding="UTF-8"?>
<svg width="56px" height="56px" viewBox="0 0 56 56" version="1.1" xmlns="http://www.w3.org/2000/svg" xmlns:xlink="http://www.w3.org/1999/xlink">
    <!-- Generator: Sketch 61.2 (89653) - https://sketch.com -->
    <title>编组 26备份</title>
    <desc>Created with Sketch.</desc>
    <g id="页面-1" stroke="none" stroke-width="1" fill="none" fill-rule="evenodd">
        <g id="编组-7备份-2" transform="translate(-1108.000000, -45.000000)">
            <g id="编组-15备份-4">
                <g id="编组-26备份" transform="translate(1108.000000, 45.000000)">
                    <g id="编组-14">
                        <g id="矩形-2" fill="#FFFFFF" opacity="0">
                            <rect id="矩形" x="0" y="0" width="56" height="56"></rect>
                        </g>
                        <g id="编组-13" transform="translate(14.000000, 16.800000)">
                            <polygon id="Rectangle-4" fill="#EBEFF5" points="0 22.4 0 0 28 0 28 22.4"></polygon>
                            <polygon id="矩形备份-9" fill="#C1CCDD" points="4.2 9.1 23.8 9.1 23.8 10.5 4.2 10.5"></polygon>
                            <polygon id="矩形备份-13" fill="#C1CCDD" points="4.2 14 18.2 14 18.2 15.4 4.2 15.4"></polygon>
                            <rect id="矩形" fill="#C1CCDD" x="2.48689958e-15" y="0" width="28" height="4.9"></rect>
                        </g>
                    </g>
                    <g id="编组备份" transform="translate(35.000000, 32.200000)">
                        <g id="编组-36">
                            <path d="M5.6,0 C2.5074,0 0,2.5074 0,5.6 C0,8.6926 2.5074,11.2 5.6,11.2 C8.6926,11.2 11.2,8.6926 11.2,5.6 C11.2,2.5074 8.6926,0 5.6,0 L5.6,0 Z" id="Path" fill="#0076FF"></path>
                            <path d="M6.3,7 L6.3,8.4 L4.9,8.4 L4.9,7 L6.3,7 Z M6.3,2.8 L6.3,6.3 L4.9,6.3 L4.9,2.8 L6.3,2.8 Z" id="形状" fill="#FFFFFF"></path>
                        </g>
                    </g>
                </g>
            </g>
        </g>
    </g>
</svg>