<?xml version="1.0" encoding="UTF-8"?>
<svg width="80px" height="80px" viewBox="0 0 80 80" version="1.1" xmlns="http://www.w3.org/2000/svg" xmlns:xlink="http://www.w3.org/1999/xlink">
    <!-- Generator: Sketch 61.2 (89653) - https://sketch.com -->
    <title>编组 21备份</title>
    <desc>Created with Sketch.</desc>
    <g id="页面-1" stroke="none" stroke-width="1" fill="none" fill-rule="evenodd">
        <g id="控制台导航框架调整-广告内容区置顶备份-68" transform="translate(-860.000000, -432.000000)">
            <g id="编组-7" transform="translate(180.000000, 399.000000)">
                <g id="编组-15备份-4">
                    <g id="编组-21备份" transform="translate(680.000000, 33.000000)">
                        <g id="编组-16" fill="#EBEFF5">
                            <circle id="椭圆形" cx="40" cy="40" r="40"></circle>
                        </g>
                        <g id="编组-9" transform="translate(16.000000, 16.000000)">
                            <rect id="矩形" fill="#FFFFFF" opacity="0" x="0" y="0" width="48" height="48"></rect>
                            <polygon id="路径" fill="#C1CCDD" points="24 20.8775 44.999 33.0025 44.999 14.0025 24 1.8775 2.999 14.0025 2.999 33.0025"></polygon>
                            <polygon id="路径备份-3" fill="#FFFFFF" points="24 26.1225 44.999 13.9975 44.999 33.9975 24 46.1225 2.999 33.9975 2.999 13.9975"></polygon>
                        </g>
                        <g id="编组-10" transform="translate(48.000000, 44.000000)">
                            <rect id="矩形" fill="#FFFFFF" opacity="0" x="0" y="0" width="20" height="20"></rect>
                            <path d="M10,1 C12.7614237,1 15,3.23857625 15,6 L15,7 L17,7 L17,18 L3,18 L3,7 L5,7 L5,6 C5,3.23857625 7.23857625,1 10,1 Z M10,3 C8.40231912,3 7.09633912,4.24891996 7.00509269,5.82372721 L7,6 L7,7 L13,7 L13,6 C13,4.40231912 11.75108,3.09633912 10.1762728,3.00509269 L10,3 Z" id="形状结合" fill="#0076FF"></path>
                            <rect id="矩形" fill="#FFFFFF" x="9" y="10" width="2" height="5"></rect>
                        </g>
                    </g>
                </g>
            </g>
        </g>
    </g>
</svg>