<?xml version="1.0" encoding="UTF-8"?>
<svg width="56px" height="56px" viewBox="0 0 56 56" version="1.1" xmlns="http://www.w3.org/2000/svg" xmlns:xlink="http://www.w3.org/1999/xlink">
    <!-- Generator: Sketch 61.2 (89653) - https://sketch.com -->
    <title>编组 31备份</title>
    <desc>Created with Sketch.</desc>
    <g id="页面-1" stroke="none" stroke-width="1" fill="none" fill-rule="evenodd">
        <g id="编组-7备份-2" transform="translate(-1254.000000, -45.000000)">
            <g id="编组-15备份-4">
                <g id="编组-31备份" transform="translate(1254.000000, 45.000000)">
                    <g id="编组-20">
                        <rect id="矩形" fill="#FFFFFF" opacity="0" x="0" y="0" width="56" height="56"></rect>
                        <circle id="椭圆形" fill="#C1CCDD" cx="28" cy="28" r="15.4"></circle>
                        <path d="M28,12.6 L27.928081,12.6 C29.6679915,12.6 31.3405093,12.8885419 32.900394,13.420385 L32.9,19.6 L28,19.6 L28,25.9 L22.4,25.9 L22.4,30.1 L32.2,30.1 L35.7,33.6 L39.9,33.6 L39.9009623,37.6863756 C37.1376831,41.0976995 32.9459748,43.3046163 28.2359801,43.3969834 L27.9998967,43.3993 L28,36.4 L23.8,36.4 L23.8,33.6 L13.3721493,23.1714942 C15.3977773,17.0314789 21.181375,12.6 28,12.6 Z" id="路径" fill="#EBEFF5"></path>
                    </g>
                    <g id="编组备份" transform="translate(35.000000, 32.200000)">
                        <path d="M5.6,0 C2.5074,0 0,2.5074 0,5.6 C0,8.6926 2.5074,11.2 5.6,11.2 C8.6926,11.2 11.2,8.6926 11.2,5.6 C11.2,2.5074 8.6926,0 5.6,0 L5.6,0 Z" id="Path" fill="#0076FF"></path>
                        <path d="M6.3,7 L6.3,8.4 L4.9,8.4 L4.9,7 L6.3,7 Z M6.3,2.8 L6.3,6.3 L4.9,6.3 L4.9,2.8 L6.3,2.8 Z" id="形状" fill="#FFFFFF"></path>
                    </g>
                </g>
            </g>
        </g>
    </g>
</svg>