<?xml version="1.0" encoding="UTF-8"?>
<svg width="80px" height="80px" viewBox="0 0 80 80" version="1.1" xmlns="http://www.w3.org/2000/svg" xmlns:xlink="http://www.w3.org/1999/xlink">
    <!-- Generator: Sketch 61.2 (89653) - https://sketch.com -->
    <title>编组 32备份</title>
    <desc>Created with Sketch.</desc>
    <g id="页面-1" stroke="none" stroke-width="1" fill="none" fill-rule="evenodd">
        <g id="控制台导航框架调整-广告内容区置顶备份-68" transform="translate(-1172.000000, -432.000000)">
            <g id="编组-7" transform="translate(180.000000, 399.000000)">
                <g id="编组-15备份-4">
                    <g id="编组-32备份" transform="translate(992.000000, 33.000000)">
                        <g id="编组-11备份-5" fill="#EBEFF5">
                            <circle id="椭圆形备份-2" cx="40" cy="40" r="40"></circle>
                        </g>
                        <g id="编组-14备份-3" transform="translate(16.000000, 16.000000)" fill="#FFFFFF" opacity="0">
                            <g id="矩形-2">
                                <rect id="矩形" x="0" y="0" width="48" height="48"></rect>
                            </g>
                        </g>
                        <g id="编组-18" transform="translate(16.000000, 16.000000)">
                            <rect id="矩形" fill="#FFFFFF" opacity="0" x="0" y="0" width="48" height="48"></rect>
                            <g id="编组-17" transform="translate(3.000000, 7.000000)">
                                <polygon id="矩形" fill="#C1CCDD" points="9.24191279e-14 -3.86535248e-12 15 0 19 4 38 4 38 34 9.24191279e-14 34"></polygon>
                                <path d="M44.431,10 L38,34 L4.54747351e-13,34 L6.431,10 L44.431,10 Z" id="形状结合" fill="#FFFFFF"></path>
                            </g>
                        </g>
                        <g id="编组备份" transform="translate(48.000000, 44.000000)">
                            <rect id="矩形" fill="#FFFFFF" opacity="0" x="0" y="0" width="20" height="20"></rect>
                            <circle id="椭圆形" fill="#FFFFFF" cx="10" cy="10" r="7"></circle>
                            <path d="M10,2 C5.582,2 2,5.582 2,10 C2,14.418 5.582,18 10,18 C14.418,18 18,14.418 18,10 C18,5.582 14.418,2 10,2 L10,2 Z" id="形状结合" fill="#0076FF"></path>
                            <path d="M9.2517968,5 C11.5999993,5 13.5035936,6.90359427 13.5035936,9.2517968 C13.5035936,10.063516 13.2761284,10.8221079 12.8814626,11.4673078 L14.6568542,13.2426407 L13.2426407,14.6568542 L11.4673078,12.8814626 C10.8221079,13.2761284 10.063516,13.5035936 9.2517968,13.5035936 C6.90359427,13.5035936 5,11.5999993 5,9.2517968 C5,6.90359427 6.90359427,5 9.2517968,5 Z M9.2517968,7 C8.00816377,7 7,8.00816377 7,9.2517968 C7,10.4954298 8.00816377,11.5035936 9.2517968,11.5035936 C10.4954298,11.5035936 11.5035936,10.4954298 11.5035936,9.2517968 C11.5035936,8.00816377 10.4954298,7 9.2517968,7 Z" id="形状" fill="#FFFFFF" fill-rule="nonzero"></path>
                        </g>
                    </g>
                </g>
            </g>
        </g>
    </g>
</svg>