<?xml version="1.0" encoding="UTF-8"?>
<svg width="80px" height="80px" viewBox="0 0 80 80" version="1.1" xmlns="http://www.w3.org/2000/svg" xmlns:xlink="http://www.w3.org/1999/xlink">
    <!-- Generator: Sketch 61.2 (89653) - https://sketch.com -->
    <title>编组 25备份</title>
    <desc>Created with Sketch.</desc>
    <g id="页面-1" stroke="none" stroke-width="1" fill="none" fill-rule="evenodd">
        <g id="控制台导航框架调整-广告内容区置顶备份-68" transform="translate(-964.000000, -432.000000)">
            <g id="编组-7" transform="translate(180.000000, 399.000000)">
                <g id="编组-15备份-4">
                    <g id="编组-25备份" transform="translate(784.000000, 33.000000)">
                        <g id="编组-11" fill="#EBEFF5">
                            <circle id="椭圆形备份-2" cx="40" cy="40" r="40"></circle>
                        </g>
                        <g id="编组-9" transform="translate(16.000000, 16.000000)">
                            <rect id="矩形" fill="#FFFFFF" opacity="0" x="0" y="0" width="48" height="48"></rect>
                            <polygon id="路径" fill="#FFFFFF" points="24 20.8775 44.994 32.9995 24 45.1225 3.003 32.9995"></polygon>
                            <polygon id="路径" fill="#C1CCDD" points="24 11.8775 44.994 23.9995 24 36.1225 3.003 23.9995"></polygon>
                            <polygon id="路径" fill="#FFFFFF" points="24 2.8775 44.994 14.9995 24 27.1225 3.003 14.9995"></polygon>
                        </g>
                        <g id="编组-19备份" transform="translate(48.000000, 44.000000)">
                            <rect id="矩形备份-47" fill="#FFFFFF" opacity="0" x="0" y="0" width="20" height="20"></rect>
                            <circle id="椭圆形" fill="#FFFFFF" cx="10" cy="10" r="7"></circle>
                            <path d="M10,2 C14.418,2 18,5.582 18,10 C18,14.418 14.418,18 10,18 C5.582,18 2,14.418 2,10 C2,5.582 5.582,2 10,2 Z M11,5 L9,5 L9,10.9142136 L12.2928932,14.2071068 L13.7071068,12.7928932 L11,10.085 L11,5 Z" id="形状" fill="#0076FF"></path>
                        </g>
                    </g>
                </g>
            </g>
        </g>
    </g>
</svg>