<?xml version="1.0" encoding="UTF-8"?>
<svg width="56px" height="56px" viewBox="0 0 56 56" version="1.1" xmlns="http://www.w3.org/2000/svg" xmlns:xlink="http://www.w3.org/1999/xlink">
    <!-- Generator: Sketch 61.2 (89653) - https://sketch.com -->
    <title>编组 30备份</title>
    <desc>Created with Sketch.</desc>
    <g id="页面-1" stroke="none" stroke-width="1" fill="none" fill-rule="evenodd">
        <g id="编组-7备份-2" transform="translate(-1181.000000, -45.000000)">
            <g id="编组-15备份-4">
                <g id="编组-30备份" transform="translate(1181.000000, 45.000000)">
                    <g id="编组-14备份-2">
                        <g id="矩形-2" fill="#FFFFFF" opacity="0">
                            <rect id="矩形" x="0" y="0" width="56" height="56"></rect>
                        </g>
                        <g id="编组-13" transform="translate(11.900000, 13.300000)">
                            <polygon id="Rectangle-4" fill="#EBEFF5" points="3.5 26.6 3.5 16.8 11.9 16.8 11.9 26.6"></polygon>
                            <polygon id="Rectangle-4备份" fill="#C1CCDD" points="11.9 26.6 11.9 9.8 20.3 9.8 20.3 26.6"></polygon>
                            <polygon id="路径-6" fill="#C1CCDD" fill-rule="nonzero" points="18.2280748 0.205025253 19.2180243 1.19497475 14.2899495 6.12304952 9.3898 6.1229 1.19497475 14.3180243 0.205025253 13.3280748 8.81005051 4.72304952 13.7095 4.7229"></polygon>
                            <polygon id="Rectangle-4备份-2" fill="#EBEFF5" points="20.3 26.6 20.3 1.4 28.7 1.4 28.7 26.6"></polygon>
                        </g>
                    </g>
                    <g id="编组备份" transform="translate(35.000000, 32.200000)">
                        <path d="M5.6,0 C2.5074,0 0,2.5074 0,5.6 C0,8.6926 2.5074,11.2 5.6,11.2 C8.6926,11.2 11.2,8.6926 11.2,5.6 C11.2,2.5074 8.6926,0 5.6,0 L5.6,0 Z" id="Path" fill="#0076FF"></path>
                        <path d="M6.3,7 L6.3,8.4 L4.9,8.4 L4.9,7 L6.3,7 Z M6.3,2.8 L6.3,6.3 L4.9,6.3 L4.9,2.8 L6.3,2.8 Z" id="形状" fill="#FFFFFF"></path>
                    </g>
                </g>
            </g>
        </g>
    </g>
</svg>