<?xml version="1.0" encoding="UTF-8"?>
<svg width="56px" height="56px" viewBox="0 0 56 56" version="1.1" xmlns="http://www.w3.org/2000/svg" xmlns:xlink="http://www.w3.org/1999/xlink">
    <!-- Generator: Sketch 61.2 (89653) - https://sketch.com -->
    <title>编组 21备份</title>
    <desc>Created with Sketch.</desc>
    <g id="页面-1" stroke="none" stroke-width="1" fill="none" fill-rule="evenodd">
        <g id="编组-7备份-2" transform="translate(-692.000000, -45.000000)">
            <g id="编组-15备份-4">
                <g id="编组-21备份" transform="translate(692.000000, 45.000000)">
                    <g id="编组-9">
                        <rect id="矩形" fill="#FFFFFF" opacity="0" x="0" y="0" width="56" height="56"></rect>
                        <polygon id="路径" fill="#C1CCDD" points="28 25.81425 42.6993 34.30175 42.6993 21.00175 28 12.51425 13.2993 21.00175 13.2993 34.30175"></polygon>
                        <polygon id="路径备份-3" fill="#EBEFF5" points="28 29.48575 42.6993 20.99825 42.6993 34.99825 28 43.48575 13.2993 34.99825 13.2993 20.99825"></polygon>
                    </g>
                    <g id="编组-10" transform="translate(35.700000, 31.500000)">
                        <path d="M4.9,0 C6.83299662,0 8.4,1.56700338 8.4,3.5 L8.4,4.199 L9.8,4.2 L9.8,11.9 L0,11.9 L0,4.2 L1.4,4.199 L1.4,3.5 C1.4,1.56700338 2.96700338,0 4.9,0 Z M4.9,1.4 C3.78162338,1.4 2.86743738,2.27424398 2.80356489,3.37660905 L2.8,3.5 L2.8,4.2 L7,4.2 L7,3.5 C7,2.38162338 6.12575602,1.46743738 5.02339095,1.40356489 L4.9,1.4 Z" id="形状结合" fill="#0076FF"></path>
                        <rect id="矩形" fill="#FFFFFF" x="4.2" y="6.3" width="1.4" height="3.5"></rect>
                    </g>
                </g>
            </g>
        </g>
    </g>
</svg>