<?xml version="1.0" encoding="UTF-8"?>
<svg width="56px" height="56px" viewBox="0 0 56 56" version="1.1" xmlns="http://www.w3.org/2000/svg" xmlns:xlink="http://www.w3.org/1999/xlink">
    <!-- Generator: Sketch 61.2 (89653) - https://sketch.com -->
    <title>编组 25备份</title>
    <desc>Created with Sketch.</desc>
    <g id="页面-1" stroke="none" stroke-width="1" fill="none" fill-rule="evenodd">
        <g id="编组-7备份-2" transform="translate(-890.000000, -45.000000)">
            <g id="编组-15备份-4">
                <g id="编组-25备份" transform="translate(890.000000, 45.000000)">
                    <g id="编组-9">
                        <rect id="矩形" fill="#FFFFFF" opacity="0" x="0" y="0" width="56" height="56"></rect>
                        <polygon id="路径" fill="#EBEFF5" points="28 25.81425 42.6958 34.29965 28 42.78575 13.3021 34.29965"></polygon>
                        <polygon id="路径" fill="#C1CCDD" points="28 19.51425 42.6958 27.99965 28 36.48575 13.3021 27.99965"></polygon>
                        <polygon id="路径" fill="#EBEFF5" points="28 13.21425 42.6958 21.69965 28 30.18575 13.3021 21.69965"></polygon>
                    </g>
                    <g id="编组-19备份" transform="translate(35.000000, 32.200000)">
                        <path d="M5.6,0 C8.6926,0 11.2,2.5074 11.2,5.6 C11.2,8.6926 8.6926,11.2 5.6,11.2 C2.5074,11.2 0,8.6926 0,5.6 C0,2.5074 2.5074,0 5.6,0 Z" id="路径" fill="#0076FF"></path>
                        <polygon id="路径" fill="#FFFFFF" points="6.3 2.1 4.9 2.1 4.9 6.23994949 7.20502525 8.54497475 8.19497475 7.55502525 6.3 5.6595"></polygon>
                    </g>
                </g>
            </g>
        </g>
    </g>
</svg>