<?xml version="1.0" encoding="UTF-8"?>
<svg width="80px" height="80px" viewBox="0 0 80 80" version="1.1" xmlns="http://www.w3.org/2000/svg" xmlns:xlink="http://www.w3.org/1999/xlink">
    <!-- Generator: Sketch 61.2 (89653) - https://sketch.com -->
    <title>编组 31备份</title>
    <desc>Created with Sketch.</desc>
    <g id="页面-1" stroke="none" stroke-width="1" fill="none" fill-rule="evenodd">
        <g id="控制台导航框架调整-广告内容区置顶备份-68" transform="translate(-1484.000000, -432.000000)">
            <g id="编组-7" transform="translate(180.000000, 399.000000)">
                <g id="编组-15备份-4">
                    <g id="编组-31备份" transform="translate(1304.000000, 33.000000)">
                        <g id="编组-11备份-4" fill="#EBEFF5">
                            <circle id="椭圆形备份-2" cx="40" cy="40" r="40"></circle>
                        </g>
                        <g id="编组-20" transform="translate(16.000000, 16.000000)">
                            <rect id="矩形" fill="#FFFFFF" opacity="0" x="0" y="0" width="48" height="48"></rect>
                            <circle id="椭圆形" fill="#C1CCDD" cx="24" cy="24" r="22"></circle>
                            <path d="M24,2 L23.8972586,2 C26.3828449,2 28.7721562,2.41220267 31.0005628,3.17197854 L31,12 L24,12 L24,21 L16,21 L16,27 L30,27 L35,32 L41,32 L41.0013747,37.8376794 C37.053833,42.7109993 31.0656783,45.8637376 24.3371144,45.9956905 L23.9998524,45.999 L24,36 L18,36 L18,32 L3.10307049,17.1021345 C5.99682469,8.33068407 14.2591071,2 24,2 Z" id="路径" fill="#FFFFFF"></path>
                        </g>
                        <g id="编组备份" transform="translate(48.000000, 44.000000)">
                            <rect id="矩形" fill="#FFFFFF" opacity="0" x="0" y="0" width="20" height="20"></rect>
                            <circle id="椭圆形" fill="#FFFFFF" cx="10" cy="10" r="7"></circle>
                            <path d="M10,2 C14.418,2 18,5.582 18,10 C18,14.418 14.418,18 10,18 C5.582,18 2,14.418 2,10 C2,5.582 5.582,2 10,2 Z M11,12 L9,12 L9,14 L11,14 L11,12 Z M11,6 L9,6 L9,11 L11,11 L11,6 Z" id="形状结合" fill="#0076FF"></path>
                        </g>
                    </g>
                </g>
            </g>
        </g>
    </g>
</svg>