<?xml version="1.0" encoding="UTF-8"?>
<svg width="56px" height="56px" viewBox="0 0 56 56" version="1.1" xmlns="http://www.w3.org/2000/svg" xmlns:xlink="http://www.w3.org/1999/xlink">
    <!-- Generator: Sketch 61.2 (89653) - https://sketch.com -->
    <title>编组 6</title>
    <desc>Created with Sketch.</desc>
    <g id="页面-1" stroke="none" stroke-width="1" fill="none" fill-rule="evenodd">
        <g id="编组-7备份-2" transform="translate(-962.000000, -45.000000)">
            <g id="编组-15备份-4">
                <g id="编组-6" transform="translate(962.000000, 45.000000)">
                    <g id="矩形-2" fill="#FFFFFF" opacity="0">
                        <rect id="矩形" x="0" y="0" width="56" height="56"></rect>
                    </g>
                    <g id="编组-13" transform="translate(14.000000, 16.800000)">
                        <polygon id="Rectangle-4" fill="#EBEFF5" points="0 22.4 0 0 28 0 28 22.4"></polygon>
                        <path d="M7.7,5.69095962 L20.3,18.2909596 L21.2899495,17.3010101 L17.7899596,13.8019596 L21.7,9.89095962 L28,16.1919596 L28,22.4 L0,22.4 L0,13.3899596 L7.7,5.69095962 Z" id="形状结合备份" fill="#C1CCDD"></path>
                    </g>
                    <g id="编组-19" transform="translate(35.000000, 32.200000)">
                        <path d="M0,5.6 C0,8.6926 2.5074,11.2 5.6,11.2 C8.6926,11.2 11.2,8.6926 11.2,5.6 C11.2,2.5074 8.6926,0 5.6,0 C2.5074,0 0,2.5074 0,5.6 Z" id="Path" fill="#0076FF"></path>
                        <polygon id="Path" fill="#FFFFFF" points="8.4 6.3 6.3 6.3 6.3 8.4 4.9 8.4 4.9 6.3 2.8 6.3 2.8 4.9 4.9 4.9 4.9 2.8 6.3 2.8 6.3 4.9 8.4 4.9"></polygon>
                    </g>
                </g>
            </g>
        </g>
    </g>
</svg>