<?xml version="1.0" encoding="UTF-8"?>
<svg width="80px" height="80px" viewBox="0 0 80 80" version="1.1" xmlns="http://www.w3.org/2000/svg" xmlns:xlink="http://www.w3.org/1999/xlink">
    <!-- Generator: Sketch 61.2 (89653) - https://sketch.com -->
    <title>编组 22备份</title>
    <desc>Created with Sketch.</desc>
    <g id="页面-1" stroke="none" stroke-width="1" fill="none" fill-rule="evenodd">
        <g id="控制台导航框架调整-广告内容区置顶备份-68" transform="translate(-1068.000000, -432.000000)">
            <g id="编组-7" transform="translate(180.000000, 399.000000)">
                <g id="编组-15备份-4">
                    <g id="编组-22备份" transform="translate(888.000000, 33.000000)">
                        <g id="编组-15" fill="#EBEFF5">
                            <circle id="椭圆形备份" cx="40" cy="40" r="40"></circle>
                        </g>
                        <g id="编组-14" transform="translate(16.000000, 16.000000)">
                            <g id="矩形-2" fill="#FFFFFF" opacity="0">
                                <rect id="矩形" x="0" y="0" width="48" height="48"></rect>
                            </g>
                            <g id="编组-13" transform="translate(4.000000, 8.000000)">
                                <polygon id="Rectangle-4" fill="#FFFFFF" points="0 32 0 0 40 0 40 32"></polygon>
                                <path d="M11,8.12994231 L29,26.1299423 L30.4142136,24.7157288 L25.4139423,19.7159423 L31,14.1299423 L40,23.1309423 L40,32 L0,32 L0,19.1289423 L11,8.12994231 Z" id="形状结合备份" fill="#C1CCDD"></path>
                            </g>
                        </g>
                        <g id="编组-19" transform="translate(48.000000, 44.000000)">
                            <rect id="矩形备份-47" fill="#FFFFFF" opacity="0" x="0" y="0" width="20" height="20"></rect>
                            <circle id="椭圆形" fill="#FFFFFF" cx="10" cy="10" r="7"></circle>
                            <path d="M14,11 L11,11 L11,14 L9,14 L9,11 L6,11 L6,9 L9,9 L9,6 L11,6 L11,9 L14,9 L14,11 Z M2,10 C2,14.418 5.582,18 10,18 C14.418,18 18,14.418 18,10 C18,5.582 14.418,2 10,2 C5.582,2 2,5.582 2,10 Z" id="Fill-1" fill="#0076FF"></path>
                        </g>
                    </g>
                </g>
            </g>
        </g>
    </g>
</svg>