<?xml version="1.0" encoding="UTF-8"?>
<svg width="80px" height="80px" viewBox="0 0 80 80" version="1.1" xmlns="http://www.w3.org/2000/svg" xmlns:xlink="http://www.w3.org/1999/xlink">
    <!-- Generator: Sketch 61.2 (89653) - https://sketch.com -->
    <title>编组 30备份</title>
    <desc>Created with Sketch.</desc>
    <g id="页面-1" stroke="none" stroke-width="1" fill="none" fill-rule="evenodd">
        <g id="控制台导航框架调整-广告内容区置顶备份-68" transform="translate(-1380.000000, -432.000000)">
            <g id="编组-7" transform="translate(180.000000, 399.000000)">
                <g id="编组-15备份-4">
                    <g id="编组-30备份" transform="translate(1200.000000, 33.000000)">
                        <g id="编组-11备份-3" fill="#EBEFF5">
                            <circle id="椭圆形备份-2" cx="40" cy="40" r="40"></circle>
                        </g>
                        <g id="编组-14备份-2" transform="translate(16.000000, 16.000000)">
                            <g id="矩形-2" fill="#FFFFFF" opacity="0">
                                <rect id="矩形" x="0" y="0" width="48" height="48"></rect>
                            </g>
                            <g id="编组-13" transform="translate(2.000000, 4.000000)">
                                <polygon id="Rectangle-4" fill="#FFFFFF" points="4 37 4 23 16 23 16 37"></polygon>
                                <polygon id="Rectangle-4备份" fill="#C1CCDD" points="16 37 16 13 28 13 28 37"></polygon>
                                <polyline id="路径-6" stroke="#C1CCDD" stroke-width="2" points="0 18.7472136 12 6.7472136 19 6.7472136 25.7472136 0"></polyline>
                                <polygon id="Rectangle-4备份-2" fill="#FFFFFF" points="28 37 28 1 40 1 40 37"></polygon>
                            </g>
                        </g>
                        <g id="编组备份" transform="translate(48.000000, 44.000000)">
                            <rect id="矩形" fill="#FFFFFF" opacity="0" x="0" y="0" width="20" height="20"></rect>
                            <circle id="椭圆形" fill="#FFFFFF" cx="10" cy="10" r="7"></circle>
                            <path d="M10,2 C14.418,2 18,5.582 18,10 C18,14.418 14.418,18 10,18 C5.582,18 2,14.418 2,10 C2,5.582 5.582,2 10,2 Z M11,12 L9,12 L9,14 L11,14 L11,12 Z M11,6 L9,6 L9,11 L11,11 L11,6 Z" id="形状结合" fill="#0076FF"></path>
                        </g>
                    </g>
                </g>
            </g>
        </g>
    </g>
</svg>