<?xml version="1.0" encoding="UTF-8"?>
<svg width="16px" height="16px" viewBox="0 0 16 16" version="1.1" xmlns="http://www.w3.org/2000/svg" xmlns:xlink="http://www.w3.org/1999/xlink">
    <title>tag-16px</title>
    <g id="ICON-基础库(绘制参考)" stroke="none" stroke-width="1" fill="none" fill-rule="evenodd">
        <g id="画板8-copy-5">
            <g id="tag-16px" transform="translate(-0.000000, -0.000000)">
                <rect id="bg" fill="#FFFFFF" opacity="0" x="5.68434189e-14" y="1.13686838e-13" width="16" height="16"></rect>
                <path d="M8,1.687539e-14 L14.5857864,6.58578644 C15.366835,7.36683502 15.366835,8.63316498 14.5857864,9.41421356 L9.41421356,14.5857864 C8.63316498,15.366835 7.36683502,15.366835 6.58578644,14.5857864 L-1.15463195e-14,8 L-1.15463195e-14,1.687539e-14 L8,1.687539e-14 Z M7.171,2 L2,2 L2,7.171 L8,13.1715729 L13.1715729,8 L7.171,2 Z M5.5,4 C6.32842712,4 7,4.67157288 7,5.5 C7,6.32842712 6.32842712,7 5.5,7 C4.67157288,7 4,6.32842712 4,5.5 C4,4.67157288 4.67157288,4 5.5,4 Z" fill="#444444" fill-rule="nonzero"></path>
            </g>
        </g>
    </g>
</svg>