<?xml version="1.0" encoding="UTF-8"?>
<svg width="32px" height="32px" viewBox="0 0 32 32" version="1.1" xmlns="http://www.w3.org/2000/svg" xmlns:xlink="http://www.w3.org/1999/xlink">
    <title>icon等待-2-32</title>
    <g id="color" stroke="none" stroke-width="1" fill="none" fill-rule="evenodd">
        <g id="3.-Icon-Styles" transform="translate(-272.000000, -1472.000000)" fill="#FF7200">
            <g id="icon等待-2-32" transform="translate(272.000000, 1472.000000)">
                <path d="M16,0.000499999999 C24.836556,0.000499999999 32,7.163944 32,16.0005 C32,24.837056 24.836556,32.0005 16,32.0005 C7.163444,32.0005 0,24.837056 0,16.0005 C0,7.163944 7.163444,0.000499999999 16,0.000499999999 Z M16,3.0005 C8.82029825,3.0005 3,8.82079825 3,16.0005 C3,23.1802017 8.82029825,29.0005 16,29.0005 C23.1797017,29.0005 29,23.1802017 29,16.0005 C29,8.82079825 23.1797017,3.0005 16,3.0005 Z M17.5,7.5005 L17.5,15.8795 L23.06,21.4405 L20.939,23.5615 L14.5,17.1225 L14.5,7.5005 L17.5,7.5005 Z" id="形状"></path>
            </g>
        </g>
    </g>
</svg>