<?xml version="1.0" encoding="UTF-8"?>
<svg width="32px" height="32px" viewBox="0 0 32 32" version="1.1" xmlns="http://www.w3.org/2000/svg" xmlns:xlink="http://www.w3.org/1999/xlink">
    <title>icon警示32</title>
    <g id="color" stroke="none" stroke-width="1" fill="none" fill-rule="evenodd">
        <g id="3.-Icon-Styles" transform="translate(-384.000000, -1472.000000)" fill="#FF7200">
            <g id="icon警示32" transform="translate(384.000000, 1472.000000)">
                <path d="M16,4.54747351e-13 C24.836556,4.54747351e-13 32,7.163444 32,16 C32,24.836556 24.836556,32 16,32 C7.163444,32 0,24.836556 0,16 C0,7.163444 7.163444,4.54747351e-13 16,4.54747351e-13 Z M16,3 C8.82029825,3 3,8.82029825 3,16 C3,23.1797017 8.82029825,29 16,29 C23.1797017,29 29,23.1797017 29,16 C29,8.82029825 23.1797017,3 16,3 Z M17.5,13.5 L17.5,23.5 L14.5,23.5 L14.5,13.5 L17.5,13.5 Z M17.5,8.5 L17.5,11.5 L14.5,11.5 L14.5,8.5 L17.5,8.5 Z" id="形状" transform="translate(16.000000, 16.000000) rotate(-180.000000) translate(-16.000000, -16.000000) "></path>
            </g>
        </g>
    </g>
</svg>