<?xml version="1.0" encoding="UTF-8"?>
<svg width="16px" height="16px" viewBox="0 0 16 16" version="1.1" xmlns="http://www.w3.org/2000/svg" xmlns:xlink="http://www.w3.org/1999/xlink">
    <!-- Generator: Sketch 59.1 (86144) - https://sketch.com -->
    <title>Fill 1 Copy</title>
    <desc>Created with Sketch.</desc>
    <g id="页面-1" stroke="none" stroke-width="1" fill="none" fill-rule="evenodd">
        <g id="画板" transform="translate(-360.000000, -1256.000000)" fill="#FF9D00">
            <g id="分组-10复制" transform="translate(340.000000, 1240.000000)">
                <path d="M27,28 L29,28 L29,26 L27,26 L27,28 Z M27,25 L29,25 L29,20 L27,20 L27,25 Z M28,30 C24.691,30 22,27.309 22,24 C22,20.691 24.691,18 28,18 C31.309,18 34,20.691 34,24 C34,27.309 31.309,30 28,30 L28,30 Z M28,16 C23.582,16 20,19.582 20,24 C20,28.418 23.582,32 28,32 C32.418,32 36,28.418 36,24 C36,19.582 32.418,16 28,16 L28,16 Z" id="Fill-1-Copy"></path>
            </g>
        </g>
    </g>
</svg>