<?xml version="1.0" encoding="UTF-8"?>
<svg width="16px" height="16px" viewBox="0 0 16 16" version="1.1" xmlns="http://www.w3.org/2000/svg" xmlns:xlink="http://www.w3.org/1999/xlink">
    <title>微信1 - 警告</title>
    <g id="微信1---警告" stroke="none" stroke-width="1" fill="none" fill-rule="evenodd">
        <g fill-rule="nonzero" id="形状结合">
            <path d="M8.08179979,4.61852778e-14 C12.500721,4.61852778e-14 16.0698496,2.94594744 16.0698496,6.57172891 C16.0698496,7.9036136 15.5882432,9.14376375 14.7598206,10.1798543 C14.3463927,9.46786718 13.9731646,8.82526465 13.6396461,8.25103157 C13.918564,7.72680116 14.0698496,7.1576169 14.0698496,6.57172891 C14.0698496,4.14225658 11.468538,2 8.08179979,2 C4.69506156,2 2.09375,4.14225658 2.09375,6.57172891 C2.09375,7.55044298 2.49340697,8.48297592 3.26420146,9.29317233 L3.48928134,9.51372131 L3.63550519,9.64439222 L4.55533749,10.3355405 L4.46575,11.435 L5.63931977,10.8579914 L7.28408052,11.0751487 L7.40972807,11.0903113 C7.52959182,11.1043233 7.63879059,11.1156291 7.73560035,11.1241518 L7.98713855,11.1412935 C8.02229239,11.1427332 8.05391798,11.1434578 8.08179979,11.1434578 C8.19673127,11.1434578 8.31075822,11.1409907 8.42380969,11.136129 C8.07057747,11.742851 7.69237402,12.3939875 7.28930953,13.0879262 C7.26146769,13.0864144 7.23337464,13.0832467 7.20526712,13.0800066 L6.73980743,13.0210877 L5.98564488,12.9168465 L2.18990491,14.78639 L2.47316909,11.2739142 C2.24655775,11.1039557 2.0199464,10.8773444 1.8499879,10.7073859 C0.716931189,9.51767635 0.09375,8.10135546 0.09375,6.57172891 C0.09375,2.94594744 3.66287863,4.61852778e-14 8.08179979,4.61852778e-14 Z M5.59375,5 C6.14603475,5 6.59375,5.44771525 6.59375,6 C6.59375,6.55228475 6.14603475,7 5.59375,7 C5.04146525,7 4.59375,6.55228475 4.59375,6 C4.59375,5.44771525 5.04146525,5 5.59375,5 Z M10.59375,5 C11.1460347,5 11.59375,5.44771525 11.59375,6 C11.59375,6.55228475 11.1460347,7 10.59375,7 C10.0414653,7 9.59375,6.55228475 9.59375,6 C9.59375,5.44771525 10.0414653,5 10.59375,5 Z" fill="#888888"></path>
            <path d="M12.2243297,8.33867852 C12.3305854,8.40039258 12.418924,8.48873114 12.4806381,8.59498687 L15.9024193,14.4864128 C16.0985577,14.8241125 15.9837926,15.2568857 15.6460843,15.4530387 C15.538209,15.5156966 15.4156788,15.5487017 15.290929,15.5487044 L8.4471097,15.5488536 C8.0565753,15.5488536 7.74,15.2322783 7.74,14.8417439 C7.74,14.7169941 7.77300782,14.5944639 7.83566568,14.4865885 L11.2577037,8.59501352 C11.4538568,8.25730525 11.88663,8.14254016 12.2243297,8.33867852 Z M12.3979939,14 L11.3979939,14 L11.3979939,15 L12.3979939,15 L12.3979939,14 Z M12.3979939,10 L11.3979939,10 L11.3979939,13 L12.3979939,13 L12.3979939,10 Z" style="fill:#F0B64B"></path>
        </g>
    </g>
</svg>