<?xml version="1.0" encoding="UTF-8"?>
<svg width="16px" height="16px" viewBox="0 0 16 16" version="1.1" xmlns="http://www.w3.org/2000/svg" xmlns:xlink="http://www.w3.org/1999/xlink">
    <title>微信1 - 错误</title>
    <g id="微信1---错误" stroke="none" stroke-width="1" fill="none" fill-rule="evenodd">
        <g id="微信1---积极" fill-rule="nonzero">
            <path d="M8.03492479,4.61852778e-14 C12.453846,4.61852778e-14 16.0229746,2.94594744 16.0229746,6.57172891 C16.0229746,7.27111823 15.8901749,7.94521237 15.6440927,8.57774711 C15.1652587,8.06687783 14.5803546,7.65757513 13.9247112,7.38388443 C13.989506,7.11917673 14.0229746,6.84730048 14.0229746,6.57172891 C14.0229746,4.14225658 11.421663,2 8.03492479,2 C4.64818656,2 2.046875,4.14225658 2.046875,6.57172891 C2.046875,7.55044298 2.44653197,8.48297592 3.21732646,9.29317233 L3.44240634,9.51372131 L3.58863019,9.64439222 L4.50846249,10.3355405 L4.418875,11.435 L5.59244477,10.8579914 L7.08902786,11.0557749 C7.03058949,11.361545 7,11.6772002 7,12 C7,12.369401 7.04005916,12.7294456 7.11607031,13.0760268 L6.69293243,13.0210877 L5.93876988,12.9168465 L2.14302991,14.78639 L2.42629409,11.2739142 C2.19968275,11.1039557 1.9730714,10.8773444 1.8031129,10.7073859 C0.670056189,9.51767635 0.046875,8.10135546 0.046875,6.57172891 C0.046875,2.94594744 3.61600363,4.61852778e-14 8.03492479,4.61852778e-14 Z M5.546875,5 C6.09915975,5 6.546875,5.44771525 6.546875,6 C6.546875,6.55228475 6.09915975,7 5.546875,7 C4.99459025,7 4.546875,6.55228475 4.546875,6 C4.546875,5.44771525 4.99459025,5 5.546875,5 Z M10.546875,5 C11.0991597,5 11.546875,5.44771525 11.546875,6 C11.546875,6.55228475 11.0991597,7 10.546875,7 C9.99459025,7 9.546875,6.55228475 9.546875,6 C9.546875,5.44771525 9.99459025,5 10.546875,5 Z" id="形状结合" fill="#888888"></path>
            <path d="M12,8 C14.209139,8 16,9.790861 16,12 C16,14.209139 14.209139,16 12,16 C9.79086104,16 8,14.209139 8,12 C8,9.790861 9.79086104,8 12,8 Z M12.5,13.5 L11.5,13.5 L11.5,14.5 L12.5,14.5 L12.5,13.5 Z M12.5,9.5 L11.5,9.5 L11.5,12.5 L12.5,12.5 L12.5,9.5 Z" id="形状结合" style="fill:#F74042"></path>
        </g>
    </g>
</svg>