<svg xmlns="http://www.w3.org/2000/svg" xmlns:xlink="http://www.w3.org/1999/xlink" width="16" height="16" viewBox="0 0 16 16">
  <defs>
    <clipPath id="clip-menu-个人信息">
      <rect width="16" height="16"/>
    </clipPath>
  </defs>
  <g id="menu-个人信息" clip-path="url(#clip-menu-个人信息)">
    <path id="减去_230" data-name="减去 230" d="M-98-1183h-14v-2a4,4,0,0,1,4-4h6a4,4,0,0,1,4,4v2h0Zm-12-2h10a1.99,1.99,0,0,0-.587-1.413A1.985,1.985,0,0,0-102-1187h-6A2,2,0,0,0-110-1185Zm1.5-8.5a3.5,3.5,0,0,1,3.5-3.5,3.5,3.5,0,0,1,3.5,3.5,3.5,3.5,0,0,1-3.5,3.5A3.5,3.5,0,0,1-108.5-1193.5Zm2,0a1.5,1.5,0,0,0,1.5,1.5,1.5,1.5,0,0,0,1.5-1.5,1.5,1.5,0,0,0-1.5-1.5A1.5,1.5,0,0,0-106.5-1193.5Z" transform="translate(113 1198)" fill="#444" stroke="rgba(0,0,0,0)" stroke-miterlimit="10" stroke-width="1"/>
  </g>
</svg>
